<svg width="24" height="24" viewBox="0 0 24 24" fill="none" xmlns="http://www.w3.org/2000/svg">
<path fill-rule="evenodd" clip-rule="evenodd" d="M5.39404 8.55577C5.84677 6.20157 7.90673 4.5 10.3041 4.5H13.6959C16.0933 4.5 18.1532 6.20156 18.606 8.55576L20.482 18.3112C20.5383 18.6041 20.461 18.9069 20.271 19.1368C20.081 19.3668 19.7983 19.5 19.5 19.5H4.50001C4.20171 19.5 3.91899 19.3668 3.72902 19.1368C3.53905 18.9069 3.46167 18.6041 3.518 18.3112L5.39404 8.55577ZM10.3041 6.5C8.86567 6.5 7.62969 7.52094 7.35805 8.93346L5.71064 17.5H18.2894L16.642 8.93346C16.3703 7.52094 15.1343 6.5 13.6959 6.5H10.3041Z" fill="black"/>
<path fill-rule="evenodd" clip-rule="evenodd" d="M22 19.5H2V17.5H22V19.5Z" fill="black"/>
<path fill-rule="evenodd" clip-rule="evenodd" d="M8 18.5C8 17.9477 8.44772 17.5 9 17.5H15C15.5523 17.5 16 17.9477 16 18.5V19.5C16 21.1569 14.6569 22.5 13 22.5H11C9.34315 22.5 8 21.1569 8 19.5V18.5ZM10 19.5C10 20.0523 10.4477 20.5 11 20.5H13C13.5523 20.5 14 20.0523 14 19.5H10Z" fill="black"/>
<path fill-rule="evenodd" clip-rule="evenodd" d="M9 5.5C9 6.05228 9.44772 6.5 10 6.5H14C14.5523 6.5 15 6.05228 15 5.5V4.5C15 2.84315 13.6569 1.5 12 1.5C10.3431 1.5 9 2.84315 9 4.5V5.5ZM11 4.5C11 3.94772 11.4477 3.5 12 3.5C12.5523 3.5 13 3.94772 13 4.5H11Z" fill="black"/>
</svg>
